<mxfile host="app.diagrams.net" modified="2024-04-04T11:21:49.981Z" agent="Mozilla/5.0 (Windows NT 10.0; Win64; x64) AppleWebKit/537.36 (KHTML, like Gecko) Chrome/123.0.0.0 Safari/537.36" etag="gjZa4j56o7GNpj7JnKII" version="24.2.1" type="device">
  <diagram name="Page-1" id="BHaeUw2jec1ACdndj3Xi">
    <mxGraphModel dx="1050" dy="1691" grid="1" gridSize="10" guides="1" tooltips="1" connect="1" arrows="1" fold="1" page="1" pageScale="1" pageWidth="827" pageHeight="1169" math="0" shadow="0">
      <root>
        <mxCell id="0" />
        <mxCell id="1" parent="0" />
        <mxCell id="_d0kSf7f0uNMeueQVCch-530" value="&lt;font style=&quot;font-size: 20px;&quot;&gt;Project&lt;/font&gt;" style="rounded=0;whiteSpace=wrap;html=1;" vertex="1" parent="1">
          <mxGeometry x="110" y="100" width="120" height="60" as="geometry" />
        </mxCell>
        <mxCell id="_d0kSf7f0uNMeueQVCch-531" value="" style="endArrow=none;html=1;rounded=0;" edge="1" parent="1">
          <mxGeometry width="50" height="50" relative="1" as="geometry">
            <mxPoint x="230" y="129.5" as="sourcePoint" />
            <mxPoint x="360" y="130" as="targetPoint" />
            <Array as="points">
              <mxPoint x="270" y="129.5" />
            </Array>
          </mxGeometry>
        </mxCell>
        <mxCell id="_d0kSf7f0uNMeueQVCch-532" value="&lt;font style=&quot;font-size: 20px;&quot;&gt;client&lt;/font&gt;" style="rounded=0;whiteSpace=wrap;html=1;" vertex="1" parent="1">
          <mxGeometry x="354" y="107" width="120" height="60" as="geometry" />
        </mxCell>
        <mxCell id="_d0kSf7f0uNMeueQVCch-533" value="&lt;font style=&quot;font-size: 20px;&quot;&gt;Material&lt;/font&gt;" style="rounded=0;whiteSpace=wrap;html=1;" vertex="1" parent="1">
          <mxGeometry x="110" y="242" width="120" height="60" as="geometry" />
        </mxCell>
        <mxCell id="_d0kSf7f0uNMeueQVCch-534" value="" style="endArrow=none;html=1;rounded=0;exitX=0.5;exitY=1;exitDx=0;exitDy=0;entryX=0.5;entryY=0;entryDx=0;entryDy=0;" edge="1" parent="1" source="_d0kSf7f0uNMeueQVCch-530" target="_d0kSf7f0uNMeueQVCch-533">
          <mxGeometry width="50" height="50" relative="1" as="geometry">
            <mxPoint x="130" y="200" as="sourcePoint" />
            <mxPoint x="170" y="220" as="targetPoint" />
            <Array as="points">
              <mxPoint x="170" y="200" />
            </Array>
          </mxGeometry>
        </mxCell>
        <mxCell id="_d0kSf7f0uNMeueQVCch-535" value="N" style="text;html=1;align=center;verticalAlign=middle;resizable=0;points=[];autosize=1;strokeColor=none;fillColor=none;" vertex="1" parent="1">
          <mxGeometry x="230" y="130" width="30" height="30" as="geometry" />
        </mxCell>
        <mxCell id="_d0kSf7f0uNMeueQVCch-536" value="1" style="text;html=1;align=center;verticalAlign=middle;resizable=0;points=[];autosize=1;strokeColor=none;fillColor=none;" vertex="1" parent="1">
          <mxGeometry x="320" y="130" width="30" height="30" as="geometry" />
        </mxCell>
        <mxCell id="_d0kSf7f0uNMeueQVCch-537" value="1" style="text;html=1;align=center;verticalAlign=middle;resizable=0;points=[];autosize=1;strokeColor=none;fillColor=none;rotation=0;" vertex="1" parent="1">
          <mxGeometry x="165" y="158" width="30" height="30" as="geometry" />
        </mxCell>
        <mxCell id="_d0kSf7f0uNMeueQVCch-538" value="N" style="text;html=1;align=center;verticalAlign=middle;resizable=0;points=[];autosize=1;strokeColor=none;fillColor=none;" vertex="1" parent="1">
          <mxGeometry x="165" y="215" width="30" height="30" as="geometry" />
        </mxCell>
        <mxCell id="_d0kSf7f0uNMeueQVCch-539" value="&lt;font style=&quot;font-size: 20px;&quot;&gt;Invoice&lt;/font&gt;&lt;div&gt;&lt;font style=&quot;font-size: 20px;&quot;&gt;Reciept&lt;/font&gt;&lt;/div&gt;" style="rounded=0;whiteSpace=wrap;html=1;" vertex="1" parent="1">
          <mxGeometry x="557" y="124" width="120" height="60" as="geometry" />
        </mxCell>
        <mxCell id="_d0kSf7f0uNMeueQVCch-540" value="" style="endArrow=none;html=1;rounded=0;" edge="1" parent="1">
          <mxGeometry width="50" height="50" relative="1" as="geometry">
            <mxPoint x="677" y="153.5" as="sourcePoint" />
            <mxPoint x="767" y="153.5" as="targetPoint" />
            <Array as="points">
              <mxPoint x="717" y="153.5" />
            </Array>
          </mxGeometry>
        </mxCell>
        <mxCell id="_d0kSf7f0uNMeueQVCch-541" value="&lt;font style=&quot;font-size: 20px;&quot;&gt;Payment&lt;/font&gt;&lt;div&gt;&lt;font style=&quot;font-size: 20px;&quot;&gt;Method&lt;/font&gt;&lt;/div&gt;" style="rounded=0;whiteSpace=wrap;html=1;" vertex="1" parent="1">
          <mxGeometry x="772" y="124" width="120" height="60" as="geometry" />
        </mxCell>
        <mxCell id="_d0kSf7f0uNMeueQVCch-542" value="N" style="text;html=1;align=center;verticalAlign=middle;resizable=0;points=[];autosize=1;strokeColor=none;fillColor=none;" vertex="1" parent="1">
          <mxGeometry x="672" y="124" width="30" height="30" as="geometry" />
        </mxCell>
        <mxCell id="_d0kSf7f0uNMeueQVCch-543" value="1" style="text;html=1;align=center;verticalAlign=middle;resizable=0;points=[];autosize=1;strokeColor=none;fillColor=none;" vertex="1" parent="1">
          <mxGeometry x="745" y="126" width="30" height="30" as="geometry" />
        </mxCell>
        <mxCell id="_d0kSf7f0uNMeueQVCch-544" value="" style="endArrow=none;html=1;rounded=0;exitX=0.5;exitY=0;exitDx=0;exitDy=0;" edge="1" parent="1" source="_d0kSf7f0uNMeueQVCch-530">
          <mxGeometry width="50" height="50" relative="1" as="geometry">
            <mxPoint x="165" y="90" as="sourcePoint" />
            <mxPoint x="590" y="120" as="targetPoint" />
            <Array as="points">
              <mxPoint x="170" y="60" />
              <mxPoint x="390" y="60" />
              <mxPoint x="500" y="60" />
              <mxPoint x="560" y="60" />
              <mxPoint x="590" y="60" />
            </Array>
          </mxGeometry>
        </mxCell>
        <mxCell id="_d0kSf7f0uNMeueQVCch-545" value="&lt;font style=&quot;font-size: 20px;&quot;&gt;Employee&lt;/font&gt;" style="rounded=0;whiteSpace=wrap;html=1;" vertex="1" parent="1">
          <mxGeometry x="523" y="387" width="120" height="60" as="geometry" />
        </mxCell>
        <mxCell id="_d0kSf7f0uNMeueQVCch-547" value="&lt;font style=&quot;font-size: 20px;&quot;&gt;Task&lt;/font&gt;" style="rounded=0;whiteSpace=wrap;html=1;" vertex="1" parent="1">
          <mxGeometry x="265" y="-50" width="120" height="60" as="geometry" />
        </mxCell>
        <mxCell id="_d0kSf7f0uNMeueQVCch-550" value="1" style="text;html=1;align=center;verticalAlign=middle;resizable=0;points=[];autosize=1;strokeColor=none;fillColor=none;" vertex="1" parent="1">
          <mxGeometry x="165" y="78" width="30" height="30" as="geometry" />
        </mxCell>
        <mxCell id="_d0kSf7f0uNMeueQVCch-551" value="N" style="text;html=1;align=center;verticalAlign=middle;resizable=0;points=[];autosize=1;strokeColor=none;fillColor=none;" vertex="1" parent="1">
          <mxGeometry x="557" y="94" width="30" height="30" as="geometry" />
        </mxCell>
        <mxCell id="_d0kSf7f0uNMeueQVCch-552" value="&lt;font style=&quot;font-size: 20px;&quot;&gt;Invoice&lt;/font&gt;" style="rounded=0;whiteSpace=wrap;html=1;" vertex="1" parent="1">
          <mxGeometry x="350" y="284" width="120" height="60" as="geometry" />
        </mxCell>
        <mxCell id="_d0kSf7f0uNMeueQVCch-556" value="&lt;font style=&quot;font-size: 20px;&quot;&gt;Payment&lt;/font&gt;" style="rounded=0;whiteSpace=wrap;html=1;" vertex="1" parent="1">
          <mxGeometry x="122" y="333" width="120" height="77" as="geometry" />
        </mxCell>
        <mxCell id="_d0kSf7f0uNMeueQVCch-557" value="" style="endArrow=none;html=1;rounded=0;" edge="1" parent="1">
          <mxGeometry width="50" height="50" relative="1" as="geometry">
            <mxPoint x="120" y="380" as="sourcePoint" />
            <mxPoint x="110" y="130" as="targetPoint" />
            <Array as="points">
              <mxPoint x="100" y="380" />
              <mxPoint x="80" y="380" />
              <mxPoint x="80" y="260" />
              <mxPoint x="80" y="130" />
            </Array>
          </mxGeometry>
        </mxCell>
        <mxCell id="_d0kSf7f0uNMeueQVCch-558" value="1" style="text;html=1;align=center;verticalAlign=middle;resizable=0;points=[];autosize=1;strokeColor=none;fillColor=none;" vertex="1" parent="1">
          <mxGeometry x="85" y="128" width="30" height="30" as="geometry" />
        </mxCell>
        <mxCell id="_d0kSf7f0uNMeueQVCch-559" value="N" style="text;html=1;align=center;verticalAlign=middle;resizable=0;points=[];autosize=1;strokeColor=none;fillColor=none;" vertex="1" parent="1">
          <mxGeometry x="92" y="355" width="30" height="30" as="geometry" />
        </mxCell>
        <mxCell id="_d0kSf7f0uNMeueQVCch-560" value="&lt;font style=&quot;font-size: 20px;&quot;&gt;Role&lt;/font&gt;" style="rounded=0;whiteSpace=wrap;html=1;" vertex="1" parent="1">
          <mxGeometry x="390" y="609" width="120" height="60" as="geometry" />
        </mxCell>
        <mxCell id="_d0kSf7f0uNMeueQVCch-561" value="" style="endArrow=none;html=1;rounded=0;" edge="1" parent="1">
          <mxGeometry width="50" height="50" relative="1" as="geometry">
            <mxPoint x="511" y="636.5" as="sourcePoint" />
            <mxPoint x="601" y="636.5" as="targetPoint" />
            <Array as="points">
              <mxPoint x="551" y="636.5" />
            </Array>
          </mxGeometry>
        </mxCell>
        <mxCell id="_d0kSf7f0uNMeueQVCch-562" value="&lt;font style=&quot;font-size: 20px;&quot;&gt;User&lt;/font&gt;" style="rounded=0;whiteSpace=wrap;html=1;" vertex="1" parent="1">
          <mxGeometry x="606" y="607" width="120" height="60" as="geometry" />
        </mxCell>
        <mxCell id="_d0kSf7f0uNMeueQVCch-563" value="1" style="text;html=1;align=center;verticalAlign=middle;resizable=0;points=[];autosize=1;strokeColor=none;fillColor=none;" vertex="1" parent="1">
          <mxGeometry x="510" y="607" width="30" height="30" as="geometry" />
        </mxCell>
        <mxCell id="_d0kSf7f0uNMeueQVCch-564" value="N" style="text;html=1;align=center;verticalAlign=middle;resizable=0;points=[];autosize=1;strokeColor=none;fillColor=none;" vertex="1" parent="1">
          <mxGeometry x="579" y="609" width="30" height="30" as="geometry" />
        </mxCell>
        <mxCell id="_d0kSf7f0uNMeueQVCch-565" value="" style="endArrow=none;html=1;rounded=0;entryX=0;entryY=0.167;entryDx=0;entryDy=0;entryPerimeter=0;" edge="1" parent="1" target="_d0kSf7f0uNMeueQVCch-530">
          <mxGeometry width="50" height="50" relative="1" as="geometry">
            <mxPoint x="100" y="470" as="sourcePoint" />
            <mxPoint x="110" y="105" as="targetPoint" />
            <Array as="points">
              <mxPoint x="100" y="470" />
              <mxPoint x="50" y="470" />
              <mxPoint x="52" y="230" />
              <mxPoint x="50" y="110" />
            </Array>
          </mxGeometry>
        </mxCell>
        <mxCell id="_d0kSf7f0uNMeueQVCch-566" value="&lt;font style=&quot;font-size: 20px;&quot;&gt;Design&lt;/font&gt;" style="rounded=0;whiteSpace=wrap;html=1;" vertex="1" parent="1">
          <mxGeometry x="100" y="440" width="120" height="60" as="geometry" />
        </mxCell>
        <mxCell id="_d0kSf7f0uNMeueQVCch-569" value="&lt;span style=&quot;font-size: 20px;&quot;&gt;Payment&lt;/span&gt;&lt;div&gt;&lt;span style=&quot;font-size: 20px;&quot;&gt;Type&lt;/span&gt;&lt;/div&gt;" style="rounded=0;whiteSpace=wrap;html=1;" vertex="1" parent="1">
          <mxGeometry x="92" y="540" width="120" height="60" as="geometry" />
        </mxCell>
        <mxCell id="_d0kSf7f0uNMeueQVCch-571" value="1" style="text;html=1;align=center;verticalAlign=middle;resizable=0;points=[];autosize=1;strokeColor=none;fillColor=none;" vertex="1" parent="1">
          <mxGeometry x="75" y="468" width="30" height="30" as="geometry" />
        </mxCell>
        <mxCell id="_d0kSf7f0uNMeueQVCch-572" value="1" style="text;html=1;align=center;verticalAlign=middle;resizable=0;points=[];autosize=1;strokeColor=none;fillColor=none;" vertex="1" parent="1">
          <mxGeometry x="85" y="88" width="30" height="30" as="geometry" />
        </mxCell>
        <mxCell id="_d0kSf7f0uNMeueQVCch-575" value="" style="endArrow=none;html=1;rounded=0;entryX=1;entryY=0.5;entryDx=0;entryDy=0;" edge="1" parent="1">
          <mxGeometry width="50" height="50" relative="1" as="geometry">
            <mxPoint x="243" y="386" as="sourcePoint" />
            <mxPoint x="213" y="586" as="targetPoint" />
            <Array as="points">
              <mxPoint x="291" y="386" />
              <mxPoint x="291" y="496" />
              <mxPoint x="291" y="586" />
            </Array>
          </mxGeometry>
        </mxCell>
        <mxCell id="_d0kSf7f0uNMeueQVCch-576" value="N" style="text;html=1;align=center;verticalAlign=middle;resizable=0;points=[];autosize=1;strokeColor=none;fillColor=none;" vertex="1" parent="1">
          <mxGeometry x="235" y="384" width="30" height="30" as="geometry" />
        </mxCell>
        <mxCell id="_d0kSf7f0uNMeueQVCch-577" value="1" style="text;html=1;align=center;verticalAlign=middle;resizable=0;points=[];autosize=1;strokeColor=none;fillColor=none;" vertex="1" parent="1">
          <mxGeometry x="212" y="555" width="30" height="30" as="geometry" />
        </mxCell>
        <mxCell id="_d0kSf7f0uNMeueQVCch-578" value="" style="endArrow=none;html=1;rounded=0;exitX=0.75;exitY=1;exitDx=0;exitDy=0;entryX=0.006;entryY=1.067;entryDx=0;entryDy=0;entryPerimeter=0;" edge="1" parent="1" target="_d0kSf7f0uNMeueQVCch-580">
          <mxGeometry width="50" height="50" relative="1" as="geometry">
            <mxPoint x="620" y="447" as="sourcePoint" />
            <mxPoint x="627" y="605" as="targetPoint" />
            <Array as="points" />
          </mxGeometry>
        </mxCell>
        <mxCell id="_d0kSf7f0uNMeueQVCch-579" value="1" style="text;html=1;align=center;verticalAlign=middle;resizable=0;points=[];autosize=1;strokeColor=none;fillColor=none;" vertex="1" parent="1">
          <mxGeometry x="613" y="447" width="30" height="30" as="geometry" />
        </mxCell>
        <mxCell id="_d0kSf7f0uNMeueQVCch-580" value="1" style="text;html=1;align=center;verticalAlign=middle;resizable=0;points=[];autosize=1;strokeColor=none;fillColor=none;" vertex="1" parent="1">
          <mxGeometry x="623" y="575" width="30" height="30" as="geometry" />
        </mxCell>
        <mxCell id="_d0kSf7f0uNMeueQVCch-586" value="" style="endArrow=none;html=1;rounded=0;" edge="1" parent="1">
          <mxGeometry width="50" height="50" relative="1" as="geometry">
            <mxPoint x="402" y="170" as="sourcePoint" />
            <mxPoint x="402" y="282" as="targetPoint" />
            <Array as="points">
              <mxPoint x="402" y="222" />
            </Array>
          </mxGeometry>
        </mxCell>
        <mxCell id="_d0kSf7f0uNMeueQVCch-587" value="" style="endArrow=none;html=1;rounded=0;exitX=0.5;exitY=1;exitDx=0;exitDy=0;" edge="1" parent="1">
          <mxGeometry width="50" height="50" relative="1" as="geometry">
            <mxPoint x="615.5" y="185" as="sourcePoint" />
            <mxPoint x="472" y="325" as="targetPoint" />
            <Array as="points">
              <mxPoint x="615.5" y="225" />
              <mxPoint x="616" y="325" />
            </Array>
          </mxGeometry>
        </mxCell>
        <mxCell id="_d0kSf7f0uNMeueQVCch-588" value="" style="endArrow=none;html=1;rounded=0;entryX=1;entryY=0.5;entryDx=0;entryDy=0;" edge="1" parent="1" target="_d0kSf7f0uNMeueQVCch-556">
          <mxGeometry width="50" height="50" relative="1" as="geometry">
            <mxPoint x="840" y="180" as="sourcePoint" />
            <mxPoint x="655" y="302" as="targetPoint" />
            <Array as="points">
              <mxPoint x="840" y="360" />
              <mxPoint x="799" y="360" />
            </Array>
          </mxGeometry>
        </mxCell>
        <mxCell id="_d0kSf7f0uNMeueQVCch-590" value="1" style="text;html=1;align=center;verticalAlign=middle;resizable=0;points=[];autosize=1;strokeColor=none;fillColor=none;" vertex="1" parent="1">
          <mxGeometry x="800" y="188" width="30" height="30" as="geometry" />
        </mxCell>
        <mxCell id="_d0kSf7f0uNMeueQVCch-591" value="N" style="text;html=1;align=center;verticalAlign=middle;resizable=0;points=[];autosize=1;strokeColor=none;fillColor=none;" vertex="1" parent="1">
          <mxGeometry x="242" y="340" width="30" height="30" as="geometry" />
        </mxCell>
        <mxCell id="_d0kSf7f0uNMeueQVCch-593" value="1" style="text;html=1;align=center;verticalAlign=middle;resizable=0;points=[];autosize=1;strokeColor=none;fillColor=none;" vertex="1" parent="1">
          <mxGeometry x="399" y="170" width="30" height="30" as="geometry" />
        </mxCell>
        <mxCell id="_d0kSf7f0uNMeueQVCch-594" value="1" style="text;html=1;align=center;verticalAlign=middle;resizable=0;points=[];autosize=1;strokeColor=none;fillColor=none;" vertex="1" parent="1">
          <mxGeometry x="396" y="254" width="30" height="30" as="geometry" />
        </mxCell>
        <mxCell id="_d0kSf7f0uNMeueQVCch-598" value="1" style="text;html=1;align=center;verticalAlign=middle;resizable=0;points=[];autosize=1;strokeColor=none;fillColor=none;" vertex="1" parent="1">
          <mxGeometry x="470" y="294" width="30" height="30" as="geometry" />
        </mxCell>
        <mxCell id="_d0kSf7f0uNMeueQVCch-599" value="N" style="text;html=1;align=center;verticalAlign=middle;resizable=0;points=[];autosize=1;strokeColor=none;fillColor=none;" vertex="1" parent="1">
          <mxGeometry x="587" y="189" width="30" height="30" as="geometry" />
        </mxCell>
        <mxCell id="_d0kSf7f0uNMeueQVCch-601" value="" style="endArrow=none;html=1;rounded=0;" edge="1" parent="1">
          <mxGeometry width="50" height="50" relative="1" as="geometry">
            <mxPoint x="130" y="96" as="sourcePoint" />
            <mxPoint x="262" y="-24" as="targetPoint" />
            <Array as="points">
              <mxPoint x="130" y="-24" />
            </Array>
          </mxGeometry>
        </mxCell>
        <mxCell id="_d0kSf7f0uNMeueQVCch-602" value="1" style="text;html=1;align=center;verticalAlign=middle;resizable=0;points=[];autosize=1;strokeColor=none;fillColor=none;" vertex="1" parent="1">
          <mxGeometry x="130" y="70" width="30" height="30" as="geometry" />
        </mxCell>
        <mxCell id="_d0kSf7f0uNMeueQVCch-603" value="N" style="text;html=1;align=center;verticalAlign=middle;resizable=0;points=[];autosize=1;strokeColor=none;fillColor=none;" vertex="1" parent="1">
          <mxGeometry x="242" y="-30" width="30" height="30" as="geometry" />
        </mxCell>
      </root>
    </mxGraphModel>
  </diagram>
</mxfile>
